<mxfile host="app.diagrams.net" modified="2022-01-04T02:15:30.814Z" agent="5.0 (Windows NT 10.0; Win64; x64) AppleWebKit/537.36 (KHTML, like Gecko) Chrome/96.0.4664.110 Safari/537.36 Edg/96.0.1054.62" etag="aE3ZSPYrduLWj_4aUK8O" version="15.8.8" type="github">
  <diagram id="IV_X_TkmRIQZeNt81BuN" name="Page-1">
    <mxGraphModel dx="1902" dy="1037" grid="1" gridSize="10" guides="1" tooltips="1" connect="1" arrows="1" fold="1" page="1" pageScale="1" pageWidth="827" pageHeight="1169" math="0" shadow="0">
      <root>
        <mxCell id="0" />
        <mxCell id="1" parent="0" />
        <mxCell id="2juBTx7HcWIcTXjx7-tH-1" value="Arduino 框架" style="rounded=0;whiteSpace=wrap;html=1;" parent="1" vertex="1">
          <mxGeometry x="159" y="339" width="451" height="40" as="geometry" />
        </mxCell>
        <mxCell id="2juBTx7HcWIcTXjx7-tH-2" value="" style="endArrow=none;dashed=1;html=1;dashPattern=1 3;strokeWidth=2;rounded=0;" parent="1" edge="1">
          <mxGeometry width="50" height="50" relative="1" as="geometry">
            <mxPoint x="119" y="269" as="sourcePoint" />
            <mxPoint x="819" y="269" as="targetPoint" />
          </mxGeometry>
        </mxCell>
        <mxCell id="2juBTx7HcWIcTXjx7-tH-3" value="FreeRTOS开发模式" style="rounded=0;whiteSpace=wrap;html=1;" parent="1" vertex="1">
          <mxGeometry x="159" y="389" width="451" height="40" as="geometry" />
        </mxCell>
        <mxCell id="2juBTx7HcWIcTXjx7-tH-4" value="ESP32单片机" style="rounded=0;whiteSpace=wrap;html=1;" parent="1" vertex="1">
          <mxGeometry x="159" y="439" width="451" height="40" as="geometry" />
        </mxCell>
        <mxCell id="2juBTx7HcWIcTXjx7-tH-5" value="外设库" style="rounded=0;whiteSpace=wrap;html=1;" parent="1" vertex="1">
          <mxGeometry x="159" y="289" width="451" height="40" as="geometry" />
        </mxCell>
        <mxCell id="2juBTx7HcWIcTXjx7-tH-6" value="" style="endArrow=none;dashed=1;html=1;dashPattern=1 3;strokeWidth=2;rounded=0;" parent="1" edge="1">
          <mxGeometry width="50" height="50" relative="1" as="geometry">
            <mxPoint x="119" y="489" as="sourcePoint" />
            <mxPoint x="819" y="489" as="targetPoint" />
          </mxGeometry>
        </mxCell>
        <mxCell id="2juBTx7HcWIcTXjx7-tH-7" value="WIFI" style="rounded=0;whiteSpace=wrap;html=1;" parent="1" vertex="1">
          <mxGeometry x="159" y="599" width="550" height="40" as="geometry" />
        </mxCell>
        <mxCell id="2juBTx7HcWIcTXjx7-tH-8" value="lora/蓝牙" style="rounded=0;whiteSpace=wrap;html=1;" parent="1" vertex="1">
          <mxGeometry x="599" y="599" width="110" height="20" as="geometry" />
        </mxCell>
        <mxCell id="2juBTx7HcWIcTXjx7-tH-9" value="路由系统" style="rounded=0;whiteSpace=wrap;html=1;" parent="1" vertex="1">
          <mxGeometry x="159" y="649" width="550" height="40" as="geometry" />
        </mxCell>
        <mxCell id="2juBTx7HcWIcTXjx7-tH-10" value="基于linux的服务器" style="rounded=0;whiteSpace=wrap;html=1;" parent="1" vertex="1">
          <mxGeometry x="159" y="709" width="550" height="40" as="geometry" />
        </mxCell>
        <mxCell id="2juBTx7HcWIcTXjx7-tH-11" value="MQTT消息分发件" style="rounded=0;whiteSpace=wrap;html=1;" parent="1" vertex="1">
          <mxGeometry x="159" y="809" width="551" height="40" as="geometry" />
        </mxCell>
        <mxCell id="2juBTx7HcWIcTXjx7-tH-12" style="edgeStyle=orthogonalEdgeStyle;rounded=0;orthogonalLoop=1;jettySize=auto;html=1;entryX=1;entryY=0.5;entryDx=0;entryDy=0;" parent="1" source="2juBTx7HcWIcTXjx7-tH-13" target="2juBTx7HcWIcTXjx7-tH-30" edge="1">
          <mxGeometry relative="1" as="geometry" />
        </mxCell>
        <mxCell id="2juBTx7HcWIcTXjx7-tH-13" value="GOLANG逻辑层" style="rounded=0;whiteSpace=wrap;html=1;" parent="1" vertex="1">
          <mxGeometry x="159" y="867.75" width="171" height="40" as="geometry" />
        </mxCell>
        <mxCell id="2juBTx7HcWIcTXjx7-tH-14" value="SQL数据持久层" style="rounded=0;whiteSpace=wrap;html=1;" parent="1" vertex="1">
          <mxGeometry x="591" y="867.75" width="119" height="40" as="geometry" />
        </mxCell>
        <mxCell id="2juBTx7HcWIcTXjx7-tH-15" value="" style="endArrow=none;dashed=1;html=1;dashPattern=1 3;strokeWidth=2;rounded=0;" parent="1" edge="1">
          <mxGeometry width="50" height="50" relative="1" as="geometry">
            <mxPoint x="119" y="699" as="sourcePoint" />
            <mxPoint x="819" y="699" as="targetPoint" />
          </mxGeometry>
        </mxCell>
        <mxCell id="2juBTx7HcWIcTXjx7-tH-16" value="" style="endArrow=none;dashed=1;html=1;dashPattern=1 3;strokeWidth=2;rounded=0;" parent="1" edge="1">
          <mxGeometry width="50" height="50" relative="1" as="geometry">
            <mxPoint x="127" y="969" as="sourcePoint" />
            <mxPoint x="820" y="969" as="targetPoint" />
          </mxGeometry>
        </mxCell>
        <mxCell id="2juBTx7HcWIcTXjx7-tH-17" value="定期数据脚本上传" style="rounded=0;whiteSpace=wrap;html=1;" parent="1" vertex="1">
          <mxGeometry x="160" y="919" width="550" height="40" as="geometry" />
        </mxCell>
        <mxCell id="az-a027PcIVtvOwBR7CN-8" style="edgeStyle=orthogonalEdgeStyle;rounded=0;orthogonalLoop=1;jettySize=auto;html=1;entryX=1;entryY=0.5;entryDx=0;entryDy=0;" parent="1" source="2juBTx7HcWIcTXjx7-tH-19" target="2juBTx7HcWIcTXjx7-tH-33" edge="1">
          <mxGeometry relative="1" as="geometry" />
        </mxCell>
        <mxCell id="2juBTx7HcWIcTXjx7-tH-19" value="云服务器持久+运算" style="rounded=0;whiteSpace=wrap;html=1;" parent="1" vertex="1">
          <mxGeometry x="160" y="985.25" width="550" height="40" as="geometry" />
        </mxCell>
        <mxCell id="2juBTx7HcWIcTXjx7-tH-20" value="管理员控制" style="rounded=0;whiteSpace=wrap;html=1;" parent="1" vertex="1">
          <mxGeometry x="729" y="985.25" width="70" height="40" as="geometry" />
        </mxCell>
        <mxCell id="2juBTx7HcWIcTXjx7-tH-21" value="场内游戏&lt;br&gt;监控&lt;br&gt;&lt;br&gt;非故障类&lt;br&gt;跳关介入&lt;br&gt;&lt;br&gt;" style="rounded=0;whiteSpace=wrap;html=1;" parent="1" vertex="1">
          <mxGeometry x="729" y="709" width="70" height="250" as="geometry" />
        </mxCell>
        <mxCell id="az-a027PcIVtvOwBR7CN-7" style="edgeStyle=orthogonalEdgeStyle;rounded=0;orthogonalLoop=1;jettySize=auto;html=1;entryX=1;entryY=0.5;entryDx=0;entryDy=0;" parent="1" source="2juBTx7HcWIcTXjx7-tH-22" target="az-a027PcIVtvOwBR7CN-5" edge="1">
          <mxGeometry relative="1" as="geometry" />
        </mxCell>
        <mxCell id="2juBTx7HcWIcTXjx7-tH-22" value="JSON数据格式" style="rounded=0;whiteSpace=wrap;html=1;" parent="1" vertex="1">
          <mxGeometry x="159" y="499" width="550" height="40" as="geometry" />
        </mxCell>
        <mxCell id="2juBTx7HcWIcTXjx7-tH-23" value="MQTT协议" style="rounded=0;whiteSpace=wrap;html=1;" parent="1" vertex="1">
          <mxGeometry x="159" y="549" width="550" height="40" as="geometry" />
        </mxCell>
        <mxCell id="2juBTx7HcWIcTXjx7-tH-24" value="工具类&lt;br&gt;道具" style="rounded=0;whiteSpace=wrap;html=1;" parent="1" vertex="1">
          <mxGeometry x="729" y="289" width="70" height="190" as="geometry" />
        </mxCell>
        <mxCell id="2juBTx7HcWIcTXjx7-tH-25" value="机关故障&lt;br&gt;类跳关介入" style="rounded=0;whiteSpace=wrap;html=1;" parent="1" vertex="1">
          <mxGeometry x="729" y="499" width="70" height="190" as="geometry" />
        </mxCell>
        <mxCell id="2juBTx7HcWIcTXjx7-tH-26" style="edgeStyle=orthogonalEdgeStyle;rounded=0;orthogonalLoop=1;jettySize=auto;html=1;entryX=1;entryY=0.5;entryDx=0;entryDy=0;" parent="1" source="2juBTx7HcWIcTXjx7-tH-27" target="2juBTx7HcWIcTXjx7-tH-31" edge="1">
          <mxGeometry relative="1" as="geometry" />
        </mxCell>
        <mxCell id="2juBTx7HcWIcTXjx7-tH-27" value="外设" style="rounded=0;whiteSpace=wrap;html=1;" parent="1" vertex="1">
          <mxGeometry x="159" y="209" width="451" height="40" as="geometry" />
        </mxCell>
        <mxCell id="2juBTx7HcWIcTXjx7-tH-28" value="人" style="rounded=0;whiteSpace=wrap;html=1;" parent="1" vertex="1">
          <mxGeometry x="159" y="159" width="551" height="40" as="geometry" />
        </mxCell>
        <mxCell id="2juBTx7HcWIcTXjx7-tH-29" value="工具" style="rounded=0;whiteSpace=wrap;html=1;" parent="1" vertex="1">
          <mxGeometry x="620" y="209" width="90" height="40" as="geometry" />
        </mxCell>
        <mxCell id="2juBTx7HcWIcTXjx7-tH-30" value="策划设计机制重心&lt;br&gt;e.g.:定位/交易/继承/战斗/打印" style="rounded=0;whiteSpace=wrap;html=1;" parent="1" vertex="1">
          <mxGeometry x="9" y="861.5" width="120" height="52.5" as="geometry" />
        </mxCell>
        <mxCell id="2juBTx7HcWIcTXjx7-tH-31" value="策划+艺术&lt;br&gt;设计呈现重心" style="rounded=0;whiteSpace=wrap;html=1;" parent="1" vertex="1">
          <mxGeometry x="9" y="202.75" width="120" height="52.5" as="geometry" />
        </mxCell>
        <mxCell id="az-a027PcIVtvOwBR7CN-9" style="edgeStyle=orthogonalEdgeStyle;rounded=0;orthogonalLoop=1;jettySize=auto;html=1;entryX=0;entryY=0.5;entryDx=0;entryDy=0;" parent="1" source="2juBTx7HcWIcTXjx7-tH-33" target="2juBTx7HcWIcTXjx7-tH-19" edge="1">
          <mxGeometry relative="1" as="geometry" />
        </mxCell>
        <mxCell id="2juBTx7HcWIcTXjx7-tH-33" value="运营管理提炼数据&lt;br&gt;数据反馈设计策划" style="rounded=0;whiteSpace=wrap;html=1;" parent="1" vertex="1">
          <mxGeometry x="9" y="979" width="120" height="52.5" as="geometry" />
        </mxCell>
        <mxCell id="az-a027PcIVtvOwBR7CN-1" value="K8S管理DOCKER容器" style="rounded=0;whiteSpace=wrap;html=1;" parent="1" vertex="1">
          <mxGeometry x="159" y="759" width="550" height="40" as="geometry" />
        </mxCell>
        <mxCell id="az-a027PcIVtvOwBR7CN-2" value="PYTHON逻辑层(自定义项目，速度&amp;gt;性能)" style="rounded=0;whiteSpace=wrap;html=1;" parent="1" vertex="1">
          <mxGeometry x="414" y="867.75" width="166" height="40" as="geometry" />
        </mxCell>
        <mxCell id="az-a027PcIVtvOwBR7CN-3" value="QT应用程序" style="rounded=0;whiteSpace=wrap;html=1;" parent="1" vertex="1">
          <mxGeometry x="620" y="289" width="40" height="190" as="geometry" />
        </mxCell>
        <mxCell id="az-a027PcIVtvOwBR7CN-4" value="网页" style="rounded=0;whiteSpace=wrap;html=1;" parent="1" vertex="1">
          <mxGeometry x="670" y="289" width="40" height="190" as="geometry" />
        </mxCell>
        <mxCell id="az-a027PcIVtvOwBR7CN-5" value="文档整理重心" style="rounded=0;whiteSpace=wrap;html=1;" parent="1" vertex="1">
          <mxGeometry x="9" y="492.75" width="120" height="52.5" as="geometry" />
        </mxCell>
        <mxCell id="az-a027PcIVtvOwBR7CN-10" value="外观向技术栈" style="rounded=0;whiteSpace=wrap;html=1;" parent="1" vertex="1">
          <mxGeometry x="840" y="159" width="150" height="90" as="geometry" />
        </mxCell>
        <mxCell id="az-a027PcIVtvOwBR7CN-11" value="c/c++， python, QT， css+js+html(可能)，matlab/octave/python(计算领域)&lt;br&gt;&lt;br&gt;电路,pcb绘制,arduino生态&lt;br&gt;&lt;br&gt;多线程的编程模式，代码结构&lt;br&gt;&lt;br&gt;算法实现" style="rounded=0;whiteSpace=wrap;html=1;" parent="1" vertex="1">
          <mxGeometry x="840" y="289" width="150" height="190" as="geometry" />
        </mxCell>
        <mxCell id="az-a027PcIVtvOwBR7CN-12" value="linux运维&lt;br&gt;&lt;br&gt;文档编写&lt;br&gt;&lt;br&gt;mqtt协议基础知识" style="rounded=0;whiteSpace=wrap;html=1;" parent="1" vertex="1">
          <mxGeometry x="840" y="499" width="150" height="190" as="geometry" />
        </mxCell>
        <mxCell id="az-a027PcIVtvOwBR7CN-13" value="linux运维&lt;br&gt;&lt;br&gt;k8s和docker的使用操作&lt;br&gt;&lt;br&gt;编程模式&lt;br&gt;&lt;br&gt;golang，python，mysql&lt;br&gt;&lt;br&gt;算法实现" style="rounded=0;whiteSpace=wrap;html=1;" parent="1" vertex="1">
          <mxGeometry x="840" y="709" width="150" height="250" as="geometry" />
        </mxCell>
        <mxCell id="az-a027PcIVtvOwBR7CN-14" value="算法实现，linux运维，脚本编写" style="rounded=0;whiteSpace=wrap;html=1;" parent="1" vertex="1">
          <mxGeometry x="840" y="985.25" width="150" height="40" as="geometry" />
        </mxCell>
        <mxCell id="az-a027PcIVtvOwBR7CN-15" value="" style="endArrow=none;html=1;rounded=0;" parent="1" edge="1">
          <mxGeometry width="50" height="50" relative="1" as="geometry">
            <mxPoint x="1020" y="1150" as="sourcePoint" />
            <mxPoint x="1020" y="20" as="targetPoint" />
          </mxGeometry>
        </mxCell>
        <mxCell id="az-a027PcIVtvOwBR7CN-16" value="" style="endArrow=none;html=1;rounded=0;" parent="1" edge="1">
          <mxGeometry width="50" height="50" relative="1" as="geometry">
            <mxPoint x="820" y="1150" as="sourcePoint" />
            <mxPoint x="820" y="20" as="targetPoint" />
          </mxGeometry>
        </mxCell>
        <mxCell id="az-a027PcIVtvOwBR7CN-18" value="其他语言" style="rounded=0;whiteSpace=wrap;html=1;" parent="1" vertex="1">
          <mxGeometry x="337" y="867.75" width="70" height="40" as="geometry" />
        </mxCell>
        <mxCell id="az-a027PcIVtvOwBR7CN-19" value="管家" style="rounded=0;whiteSpace=wrap;html=1;" parent="1" vertex="1">
          <mxGeometry x="729" y="159" width="71" height="90" as="geometry" />
        </mxCell>
        <mxCell id="az-a027PcIVtvOwBR7CN-20" value="需求及可行性分析" style="rounded=0;whiteSpace=wrap;html=1;" parent="1" vertex="1">
          <mxGeometry x="1035" y="160" width="55" height="90" as="geometry" />
        </mxCell>
        <mxCell id="az-a027PcIVtvOwBR7CN-22" value="&lt;font style=&quot;font-size: 20px&quot;&gt;系统层级&lt;/font&gt;" style="shape=hexagon;perimeter=hexagonPerimeter2;whiteSpace=wrap;html=1;fixedSize=1;" parent="1" vertex="1">
          <mxGeometry x="160" y="30" width="550" height="60" as="geometry" />
        </mxCell>
        <mxCell id="az-a027PcIVtvOwBR7CN-23" value="&lt;font style=&quot;font-size: 20px&quot;&gt;工作重心&lt;/font&gt;" style="shape=hexagon;perimeter=hexagonPerimeter2;whiteSpace=wrap;html=1;fixedSize=1;" parent="1" vertex="1">
          <mxGeometry x="9" y="30" width="150" height="60" as="geometry" />
        </mxCell>
        <mxCell id="az-a027PcIVtvOwBR7CN-24" value="&lt;font style=&quot;font-size: 20px&quot;&gt;接口&lt;/font&gt;" style="shape=hexagon;perimeter=hexagonPerimeter2;whiteSpace=wrap;html=1;fixedSize=1;" parent="1" vertex="1">
          <mxGeometry x="710" y="30" width="110" height="60" as="geometry" />
        </mxCell>
        <mxCell id="az-a027PcIVtvOwBR7CN-25" value="&lt;font style=&quot;font-size: 20px&quot;&gt;硬性技术栈&lt;/font&gt;" style="shape=hexagon;perimeter=hexagonPerimeter2;whiteSpace=wrap;html=1;fixedSize=1;" parent="1" vertex="1">
          <mxGeometry x="820" y="30" width="200" height="60" as="geometry" />
        </mxCell>
        <mxCell id="az-a027PcIVtvOwBR7CN-26" value="&lt;font style=&quot;font-size: 20px&quot;&gt;宏观工作流程(PM)&lt;/font&gt;" style="shape=hexagon;perimeter=hexagonPerimeter2;whiteSpace=wrap;html=1;fixedSize=1;" parent="1" vertex="1">
          <mxGeometry x="1020" y="30" width="240" height="60" as="geometry" />
        </mxCell>
        <mxCell id="az-a027PcIVtvOwBR7CN-30" value="&lt;font style=&quot;font-size: 12px&quot;&gt;获得需求&lt;br&gt;&lt;br&gt;可行性分析&lt;br&gt;&lt;br&gt;可行性反馈&lt;/font&gt;" style="rounded=0;whiteSpace=wrap;html=1;" parent="1" vertex="1">
          <mxGeometry x="1101" y="160" width="140" height="90" as="geometry" />
        </mxCell>
        <mxCell id="az-a027PcIVtvOwBR7CN-31" value="服务器驱动开发&lt;br&gt;&lt;br&gt;单片机驱动开发&lt;br&gt;&lt;br&gt;电路设计并制作&lt;br&gt;&lt;br&gt;通信协议敲定并编写文档" style="rounded=0;whiteSpace=wrap;html=1;" parent="1" vertex="1">
          <mxGeometry x="1101" y="270" width="140" height="150" as="geometry" />
        </mxCell>
        <mxCell id="az-a027PcIVtvOwBR7CN-32" value="电路及驱动开发" style="rounded=0;whiteSpace=wrap;html=1;" parent="1" vertex="1">
          <mxGeometry x="1035" y="270" width="55" height="150" as="geometry" />
        </mxCell>
        <mxCell id="az-a027PcIVtvOwBR7CN-33" value="调试" style="rounded=0;whiteSpace=wrap;html=1;" parent="1" vertex="1">
          <mxGeometry x="1035" y="439" width="55" height="220" as="geometry" />
        </mxCell>
        <mxCell id="az-a027PcIVtvOwBR7CN-34" value="联合调试&lt;br&gt;&lt;br&gt;单独交付&lt;br&gt;&lt;br&gt;全局调试&lt;br&gt;&lt;br&gt;全局交付" style="rounded=0;whiteSpace=wrap;html=1;" parent="1" vertex="1">
          <mxGeometry x="1101" y="439" width="140" height="220" as="geometry" />
        </mxCell>
        <mxCell id="az-a027PcIVtvOwBR7CN-35" value="&lt;font style=&quot;font-size: 20px&quot;&gt;细化开发流程&lt;/font&gt;" style="shape=hexagon;perimeter=hexagonPerimeter2;whiteSpace=wrap;html=1;fixedSize=1;" parent="1" vertex="1">
          <mxGeometry x="1260" y="30" width="360" height="60" as="geometry" />
        </mxCell>
        <mxCell id="az-a027PcIVtvOwBR7CN-36" value="" style="endArrow=none;html=1;rounded=0;" parent="1" edge="1">
          <mxGeometry width="50" height="50" relative="1" as="geometry">
            <mxPoint x="1260" y="1150.9999999999998" as="sourcePoint" />
            <mxPoint x="1260" y="21" as="targetPoint" />
          </mxGeometry>
        </mxCell>
        <mxCell id="az-a027PcIVtvOwBR7CN-37" value="整理&lt;font color=&quot;#ff0000&quot; size=&quot;1&quot;&gt;&lt;b&gt;&lt;u style=&quot;font-size: 14px&quot;&gt;需求文档&lt;/u&gt;&lt;/b&gt;&lt;/font&gt;" style="rounded=0;whiteSpace=wrap;html=1;fontSize=12;" parent="1" vertex="1">
          <mxGeometry x="1280" y="160" width="200" height="40" as="geometry" />
        </mxCell>
        <mxCell id="az-a027PcIVtvOwBR7CN-38" value="理解需求文档，整理&lt;font color=&quot;#ff0000&quot; style=&quot;font-size: 14px&quot;&gt;&lt;b&gt;&lt;u&gt;实现方案&lt;/u&gt;&lt;/b&gt;&lt;/font&gt;" style="rounded=0;whiteSpace=wrap;html=1;fontSize=12;" parent="1" vertex="1">
          <mxGeometry x="1280" y="215.25" width="200" height="40" as="geometry" />
        </mxCell>
        <mxCell id="az-a027PcIVtvOwBR7CN-39" value="沟通并完善实现方案" style="rounded=0;whiteSpace=wrap;html=1;fontSize=12;" parent="1" vertex="1">
          <mxGeometry x="1280" y="270" width="200" height="40" as="geometry" />
        </mxCell>
        <mxCell id="az-a027PcIVtvOwBR7CN-40" value="产出&lt;font color=&quot;#ff0000&quot; size=&quot;1&quot;&gt;&lt;b&gt;&lt;u style=&quot;font-size: 14px&quot;&gt;代码/图/硬件&lt;/u&gt;&lt;/b&gt;&lt;/font&gt;" style="rounded=0;whiteSpace=wrap;html=1;fontSize=12;" parent="1" vertex="1">
          <mxGeometry x="1280" y="325" width="200" height="40" as="geometry" />
        </mxCell>
        <mxCell id="az-a027PcIVtvOwBR7CN-41" value="审核并给出&lt;font color=&quot;#ff0000&quot; size=&quot;1&quot;&gt;&lt;b&gt;&lt;u style=&quot;font-size: 14px&quot;&gt;修改反馈&lt;/u&gt;&lt;/b&gt;&lt;/font&gt;" style="rounded=0;whiteSpace=wrap;html=1;fontSize=12;" parent="1" vertex="1">
          <mxGeometry x="1280" y="380" width="200" height="40" as="geometry" />
        </mxCell>
        <mxCell id="az-a027PcIVtvOwBR7CN-42" value="产出最终&lt;font color=&quot;#ff0000&quot; style=&quot;font-size: 14px&quot;&gt;&lt;b&gt;&lt;u&gt;代码/图/硬件&lt;/u&gt;&lt;/b&gt;&lt;/font&gt;" style="rounded=0;whiteSpace=wrap;html=1;fontSize=12;" parent="1" vertex="1">
          <mxGeometry x="1280" y="439" width="200" height="40" as="geometry" />
        </mxCell>
        <mxCell id="az-a027PcIVtvOwBR7CN-43" value="全局调试成功后形成&lt;font color=&quot;#ff0000&quot; size=&quot;1&quot;&gt;&lt;b&gt;&lt;u style=&quot;font-size: 14px&quot;&gt;开发文档&lt;/u&gt;&lt;/b&gt;&lt;/font&gt;" style="rounded=0;whiteSpace=wrap;html=1;fontSize=12;" parent="1" vertex="1">
          <mxGeometry x="1280" y="499" width="200" height="40" as="geometry" />
        </mxCell>
        <mxCell id="az-a027PcIVtvOwBR7CN-44" value="交付" style="rounded=0;whiteSpace=wrap;html=1;fontSize=12;" parent="1" vertex="1">
          <mxGeometry x="1280" y="559" width="200" height="40" as="geometry" />
        </mxCell>
        <mxCell id="az-a027PcIVtvOwBR7CN-46" value="流程图/文字描述" style="rounded=0;whiteSpace=wrap;html=1;fontSize=12;" parent="1" vertex="1">
          <mxGeometry x="1490" y="159" width="110" height="91" as="geometry" />
        </mxCell>
        <mxCell id="az-a027PcIVtvOwBR7CN-47" value="会议" style="rounded=0;whiteSpace=wrap;html=1;fontSize=12;" parent="1" vertex="1">
          <mxGeometry x="1490" y="270" width="110" height="40" as="geometry" />
        </mxCell>
        <mxCell id="az-a027PcIVtvOwBR7CN-48" value="git+review为主" style="rounded=0;whiteSpace=wrap;html=1;fontSize=12;" parent="1" vertex="1">
          <mxGeometry x="1490" y="325" width="110" height="155" as="geometry" />
        </mxCell>
        <mxCell id="az-a027PcIVtvOwBR7CN-49" value="图+文档" style="rounded=0;whiteSpace=wrap;html=1;fontSize=12;" parent="1" vertex="1">
          <mxGeometry x="1490" y="499" width="110" height="41" as="geometry" />
        </mxCell>
        <mxCell id="az-a027PcIVtvOwBR7CN-50" value="会议" style="rounded=0;whiteSpace=wrap;html=1;fontSize=12;" parent="1" vertex="1">
          <mxGeometry x="1490" y="559" width="110" height="40" as="geometry" />
        </mxCell>
      </root>
    </mxGraphModel>
  </diagram>
</mxfile>
